<!DOCTYPE svg PUBLIC "-//W3C//DTD SVG 1.1//EN" "http://www.w3.org/Graphics/SVG/1.1/DTD/svg11.dtd">
<!-- Uploaded to: SVG Repo, www.svgrepo.com, Transformed by: SVG Repo Mixer Tools -->
<svg fill="#ffffff" width="64px" height="64px" viewBox="-787.2 -787.2 3494.40 3494.40" xmlns="http://www.w3.org/2000/svg" stroke="#ffffff">
<g id="SVGRepo_bgCarrier" stroke-width="0">
<path transform="translate(-787.2, -787.2), scale(218.4)" fill="#d775c5" d="M9.166.33a2.25 2.25 0 00-2.332 0l-5.25 3.182A2.25 2.25 0 00.5 5.436v5.128a2.25 2.25 0 001.084 1.924l5.25 3.182a2.25 2.25 0 002.332 0l5.25-3.182a2.25 2.25 0 001.084-1.924V5.436a2.25 2.25 0 00-1.084-1.924L9.166.33z" strokewidth="0"/>
</g>
<g id="SVGRepo_tracerCarrier" stroke-linecap="round" stroke-linejoin="round"/>
<g id="SVGRepo_iconCarrier"> <path d="M960.16 1083.131c-92.279 0-167.374-75.095-167.374-167.373 0-92.28 75.095-167.374 167.374-167.374s167.374 75.095 167.374 167.374c0 92.278-75.095 167.373-167.374 167.373ZM960.16 0 28 932.049l79 79 127.874-127.985V1920h557.912v-557.912h334.748V1920h557.912V883.064l127.874 127.985 79-79L960.16 0Z" fill-rule="evenodd"/> </g>
</svg>